<svg xmlns="http://www.w3.org/2000/svg" xmlns:xlink="http://www.w3.org/1999/xlink" width="190" height="84" viewBox="0 0 190 84">
  <defs>
    <path id="loading-airplane-a" d="M10.4292097,1.81748517 L48,40 L7.5892625,40 L0.145643191,7.21913191 C-0.580582518,4.020915 1.47994539,0.852099685 4.74796108,0.141384815 C6.81078262,-0.307229292 8.96344656,0.327856592 10.4292097,1.81748517 Z"/>
    <linearGradient id="loading-airplane-c" x1="34.791%" x2="106.268%" y1="48.71%" y2="51.879%">
      <stop offset="0%" stop-color="#E2E2E2"/>
      <stop offset="47.737%" stop-color="#E2E2E2"/>
      <stop offset="100%" stop-color="#B7BABE"/>
      <stop offset="100%" stop-color="#C5C9CE"/>
    </linearGradient>
  </defs>
  <g fill="none" fill-rule="evenodd">
    <mask id="loading-airplane-b" fill="#fff">
      <use xlink:href="#loading-airplane-a"/>
    </mask>
    <use fill="#FF5000" fill-rule="nonzero" xlink:href="#loading-airplane-a"/>
    <circle cx="-1" cy="8" r="17" fill="#FF8300" mask="url(#loading-airplane-b)"/>
    <circle cx="26.5" cy="18.5" r="8.5" fill="#00A7E1" mask="url(#loading-airplane-b)"/>
    <path fill="#F5F5F5" d="M0.307692308,43 C-1.02564103,37.6666667 1.97435897,35 9.30769231,35 C16.6410256,35 58.6410256,35 135.307692,35 C143.307692,35 149.307692,35.6666667 153.307692,37 C159.307692,39 189.307692,49 189.307692,59 C189.307692,69 182.307692,71 174.307692,73 C168.974359,74.3333333 160.307692,75 148.307692,75 L87.3076923,75 C66.6410256,74.3333333 47.6410256,70.3333333 30.3076923,63 C12.974359,55.6666667 2.97435897,49 0.307692308,43 Z"/>
    <path fill="#DDE1E4" d="M188.148014,65 C185.837555,69.9745093 180.358674,71.4872547 174.307692,73 C168.974359,74.3333333 160.307692,75 148.307692,75 L87.3076923,75 C68.604616,74.396675 51.2665439,71.0633416 35.2934759,65 L188.148014,65 Z"/>
    <g transform="translate(66 38)">
      <path fill="#FF5000" d="M78.0867052,4.62916429 L78.0867052,4.67164795 L79,4.67164795 L77.8127168,7.73047148 L76.3057803,7.73047148 C75.9404624,7.73047148 73.7942197,7.85792246 72.7895954,10.0245891 L70.8260116,14.8252427 L66.8075145,14.8252427 L70.8716763,4.62916429 L74.8445087,4.62916429 L74.0225434,6.49844533 C74.7075145,5.77622311 75.9404624,4.62916429 78.0867052,4.62916429 Z M61.0080925,14.7827591 L65.1179191,4.62916429 L69.0907514,4.62916429 L65.0265896,14.7827591 L61.0080925,14.7827591 Z M53.8387283,9.04746494 C53.8387283,9.04746494 55.6196532,8.8775303 56.532948,8.62262834 C58.1768786,8.28275906 58.0398844,7.26315122 58.0398844,7.26315122 C57.9942197,6.58341265 56.8526012,6.62589631 56.8526012,6.62589631 C55.0716763,6.62589631 54.5236994,7.94288978 54.5236994,7.94288978 L50.6421965,7.94288978 C52.5601156,4.79909893 55.8479769,4.45922965 57.8115607,4.50171331 C62.5150289,4.62916429 62.5150289,6.66837997 62.149711,7.6030205 L62.0127168,7.94288978 L59.3184971,14.7827591 L55.3913295,14.7827591 L55.7109827,14.0180532 C54.3867052,14.8677264 52.2404624,14.7827591 52.2404624,14.7827591 C49.4092486,14.7827591 48.8612717,13.4232819 48.9982659,12.4036741 C49.2722543,10.3644584 51.2815029,9.3023669 53.8387283,9.04746494 Z M56.8526012,11.1291643 L57.1722543,10.4494257 L54.4323699,10.916746 C53.8843931,11.0017133 53.4277457,11.2566153 53.3364162,11.8938702 C53.2450867,12.4886414 53.7473988,12.6585761 54.067052,12.6585761 C56.350289,12.6585761 56.8526012,11.1291643 56.8526012,11.1291643 Z M46.2583815,1.86772638 L50.6878613,1.86772638 L46.8976879,11.3415826 C45.7104046,14.3579225 41.7375723,14.6977917 40.4589595,14.6977917 L38.1300578,14.6977917 C36.7144509,14.6977917 33.883237,14.0180532 35.116185,10.8317787 L38.7236994,1.82524272 L43.1075145,1.82524272 L39.6369942,10.4494257 C39.4543353,11.0017133 39.1346821,11.9788375 40.4132948,11.9788375 C41.4635838,11.9788375 42.1942197,11.8938702 42.9705202,10.0670728 L46.2583815,1.86772638 Z M23.6543353,11.9363538 C24.4306358,11.9788375 25.6635838,12.0213211 26.3028902,11.9363538 C28.266474,11.4690336 28.8144509,9.76968716 28.8144509,9.76968716 L32.2393064,1.91021004 L36.7144509,1.91021004 L32.832948,10.9592296 C31.417341,14.1030205 28.8601156,14.5703408 27.3075145,14.6977917 C27.3075145,14.6977917 25.0699422,14.9526937 22.467052,14.6977917 L23.6543353,11.9363538 Z M20.6861272,1.86772638 L25.7092486,1.86772638 L24.5676301,4.58668063 L19.5445087,4.58668063 L18.4942197,7.13570023 L23.517341,7.13570023 L22.467052,9.64223618 L17.4439306,9.64223618 L16.4849711,11.9363538 L22.1017341,11.9363538 L20.9601156,14.6977917 L11.0965318,14.6977917 L16.2109827,1.86772638 L20.6861272,1.86772638 Z M1.18728324,11.9363538 C1.91791908,11.9788375 3.19653179,12.0213211 3.88150289,11.8938702 C5.84508671,11.4265499 6.39306358,9.7272035 6.39306358,9.7272035 L9.77225434,1.91021004 L14.2473988,1.91021004 L10.365896,10.9592296 C8.99595376,14.1030205 6.39306358,14.5703408 4.84046243,14.6977917 C4.84046243,14.6977917 2.60289017,14.9526937 -9.05941988e-14,14.6977917 L1.18728324,11.9363538 Z"/>
      <polygon fill="#00A7E1" points="66.526 .825 65 3.825 72 .825"/>
    </g>
    <path fill="#54585D" d="M150.57792,36.2601794 C151.572896,36.4784357 152.48282,36.7250425 153.307692,37 C158.08416,38.592156 178.070393,45.2542335 186.023032,52.9501796 C185.762844,52.9831813 185.499356,53 185.233964,53 L168.297377,53 C166.368422,53 164.504422,52.3030375 163.04867,51.0374731 L152.653061,42 C150.953552,40.5225231 150.242384,38.3308857 150.57792,36.2601794 Z"/>
    <path fill="#FF5000" d="M189.20526,61 C189.039473,62.5422326 188.67669,63.8617415 188.148014,65 L35.2934759,65 C33.6165024,64.3634245 31.9545746,63.6967579 30.3076923,63 C28.7186875,62.3277287 27.1913121,61.6610601 25.725566,60.9999942 L189.20526,61 Z"/>
    <g fill="#54585D" transform="translate(32 42)">
      <rect width="6" height="8" x="96" rx="2"/>
      <rect width="6" height="8" x="80" rx="2"/>
      <rect width="6" height="8" x="64" rx="2"/>
      <rect width="6" height="8" x="48" rx="2"/>
      <rect width="6" height="8" x="32" rx="2"/>
      <rect width="6" height="8" x="16" rx="2"/>
      <rect width="6" height="8" rx="2"/>
    </g>
    <g transform="translate(85 63)">
      <path fill="#54585D" d="M30,0 L32,0 C33.1045695,-2.02906125e-16 34,0.8954305 34,2 L34,19 C34,20.1045695 33.1045695,21 32,21 L30,21 L30,0 Z"/>
      <polygon fill="#EAEBEC" points="7 2.1 30 0 30 21 7 18.9"/>
      <path fill="#B7BABE" d="M2.78521922,3.66221137 L8,2 L8,19 L2.78521922,17.3377886 C1.12630513,16.8090098 9.86455257e-16,15.2678616 0,13.5267117 L0,7.47328834 C6.74949053e-16,5.73213843 1.12630513,4.19099024 2.78521922,3.66221137 Z"/>
    </g>
    <path fill="url(#loading-airplane-c)" d="M35.6522353,48.6073017 L110,59 L115,63 L93,65 L85,63 L35.2712607,50.5678152 C34.7354658,50.4338664 34.4097051,49.890932 34.5436538,49.355137 C34.6676607,48.8591097 35.1458652,48.5365188 35.6522353,48.6073017 Z"/>
  </g>
</svg>
