<?xml version="1.0" encoding="utf-8"?>
<!-- Generator: Adobe Illustrator 23.0.6, SVG Export Plug-In . SVG Version: 6.00 Build 0)  -->
<svg version="1.1" id="Layer_1" xmlns="http://www.w3.org/2000/svg" xmlns:xlink="http://www.w3.org/1999/xlink" x="0px" y="0px"
	 viewBox="0 0 56.7 56.7" style="enable-background:new 0 0 56.7 56.7;" xml:space="preserve">
<style type="text/css">
	.st0{filter:url(#Adobe_OpacityMaskFilter);}
	.st1{fill-rule:evenodd;clip-rule:evenodd;}
	.st2{mask:url(#mask-2_2_);}
</style>
<title>logo/symbol</title>
<desc>Created with Sketch.</desc>
<g id="Page-1">
	<g id="main" transform="translate(-130.000000, -44.000000)">
		<g id="logo" transform="translate(130.000000, 44.000000)">
			<g>
				<g id="logo-symbol-mask">
					<path d="M29,6.7l27,42.1c0.1,0.1,0.1,0.2,0.1,0.3c0,0.1,0,0.1,0,0.2l0,0.1c-0.1,0.3-0.3,0.5-0.6,0.6c0,0-0.1,0-0.1,0l-54.1,0
						l-0.1,0c-0.1,0-0.1,0-0.2,0c-0.2-0.1-0.3-0.2-0.4-0.3l0,0l0-0.1l0-0.1l0-0.1l0-0.1v-0.1l0-0.1l0-0.1c0-0.1,0.1-0.2,0.1-0.2
						l27-42.1C28,6.2,28.7,6.2,29,6.7z M27.6,37.7L4.7,48.4h22.9V37.7z M29.1,37.7v10.7H52L29.1,37.7z M29.1,9.7V36l24.2,11.3
						L29.1,9.7z M27.6,9.7L4.4,45.8l23.2-18.1V9.7z M27.6,29.6L7,45.6L27.6,36V29.6z"/>
				</g>
				<defs>
					<filter id="Adobe_OpacityMaskFilter" filterUnits="userSpaceOnUse" x="0" y="5.8" width="56.7" height="45.1">
						<feColorMatrix  type="matrix" values="1 0 0 0 0  0 1 0 0 0  0 0 1 0 0  0 0 0 1 0"/>
					</filter>
				</defs>
				<mask maskUnits="userSpaceOnUse" x="0" y="5.8" width="56.7" height="45.1" id="mask-2_2_">
					<g class="st0">
						<path id="path-1_2_" class="st1" d="M29,6.7l27,42.1c0.1,0.1,0.1,0.2,0.1,0.3c0,0.1,0,0.1,0,0.2l0,0.1
							c-0.1,0.3-0.3,0.5-0.6,0.6c0,0-0.1,0-0.1,0l-54.1,0l-0.1,0c-0.1,0-0.1,0-0.2,0c-0.2-0.1-0.3-0.2-0.4-0.3l0,0l0-0.1l0-0.1
							l0-0.1l0-0.1v-0.1l0-0.1l0-0.1c0-0.1,0.1-0.2,0.1-0.2l27-42.1C28,6.2,28.7,6.2,29,6.7z M27.6,37.7L4.7,48.4h22.9V37.7z
							 M29.1,37.7v10.7H52L29.1,37.7z M29.1,9.7V36l24.2,11.3L29.1,9.7z M27.6,9.7L4.4,45.8l23.2-18.1V9.7z M27.6,29.6L7,45.6
							L27.6,36V29.6z"/>
					</g>
				</mask>
				<g id="logo-symbol" class="st2">
					<rect id="Change-Fill-Color" y="5.8" class="st1" width="56.7" height="45.1"/>
				</g>
			</g>
		</g>
	</g>
</g>
</svg>
