<svg id="Layer_1" fill='currentColor' enable-background="new 0 0 73 73" height="512" viewBox="0 0 73 73" width="512" xmlns="http://www.w3.org/2000/svg"><g id="_x39_0"><path d="m20.0002899 62.8792458c5.1141968 3.9438515 14.312561 5.2935829 18.0368042 5.5167885 9.9852295.5982666 16.3182373.5317993 28.3054199-2.4908447 2.6045761-.6568756 2.9673233-3.3543587.5028076-3.4052162-6.0192871-.1241455-10.9245605.0354614-15.8549805.7047729 18.0991974-9.869381 22.1420441-36.7887344 5.4672852-51.3242188-14.1408195-12.3285788-36.1315002-9.3135812-46.2821645 6.9161377-4.0289922 5.6073608-6.1619878 12.4232788-5.5933843 19.5272827.8017578 10.0169678 6.8146367 19.4190674 15.4182124 24.5552979zm35.4719849-49.867858c12.1751862 10.6156645 13.4389801 29.0566521 2.8173828 41.2363281-12.1193199 13.8947945-33.7380333 13.1618843-45.0058594-1.1318359-8.3893929-10.6420174-8.5962009-26.3417969.9482422-37.2871094 10.6062832-12.1670389 29.0644798-13.4324293 41.2402344-2.8173828z"/><path d="m11.0777445 28.3238869v-.0009766c-.3017578 2.8964844-.7568359 7.2724609.0966797 10.46875 1.0397015 3.8943558 4.1462908 7.7634544 8.1269522 7.4277344 1.8154297-.1542969 3.6142578-1.2929688 4.8115234-3.046875 1.1347656-1.6611328 1.6289063-3.6152344 1.9326172-5.1328125.8330078-4.1572266.8681641-8.5576172.1015625-12.7255859-.3476563-1.8925781-.9804688-4.2529297-2.8007813-5.7207031-3.5915279-2.8970414-11.242217-1.1366292-12.2685537 8.7304687zm11.3271475-7.5625c1.4365234 1.1582031 1.9658203 3.1865234 2.2675781 4.8242188.7324219 3.9824219.6982422 8.1875-.0976563 12.1591797-.2763672 1.3779297-.71875 3.1445313-1.7001953 4.5820313-1.0098629 1.4777985-2.5949612 2.5428734-4.4154053 2.3951416 1.445425-.4821167 2.0942478-1.9375458 2.5130005-3.4312744 1.3803101-4.9238281 1.0692139-10.2802124-.7434692-15.0516968-.6833496-1.798645-1.6635132-4.8106689-4.0532227-4.7423096-.2722769.0078125-.5209951.0568237-.7525015.1338501 1.8532115-1.8266088 5.0030604-2.4629785 6.9818717-.8691407z"/><path d="m42.5914154 50.0260353c2.2353516-.1894531 4.453125-1.5957031 5.9326172-3.7636719 1.4121094-2.0683594 2.03125-4.5136719 2.4121094-6.4130859 1.0478516-5.2275391 1.0917969-10.7617188.1269531-16.0039063-.4326172-2.3564453-1.21875-5.2939453-3.46875-7.109375-4.4395828-3.5819969-13.9011192-1.3895035-15.1806641 10.8964844-.3798828 3.6435547-.953125 9.1503906.1162109 13.1552734 1.2924576 4.8374253 5.1604005 9.6707345 10.0615235 9.2382813zm4.0615234-32.1220703c1.8662109 1.5058594 2.5488281 4.1113281 2.9355469 6.2128906.9296875 5.0566406.8876953 10.3955078-.1230469 15.4375-.3535156 1.7597656-.9199219 4.0166016-2.1796875 5.8623047-1.9023361 2.7854576-5.0207405 4.0216522-8.0174561 2.435791 2.4182968.3375816 3.5181465-1.9957466 4.1055908-4.3737793 1.4981689-6.0632324 1.1605225-12.6591187-.8068848-18.534729-.7416992-2.2149048-1.8054199-5.9238892-4.3991699-5.8397217-.3098145.0100708-.5928955.072998-.8540039.1762695.1782227-.1901245.3455811-.3879395.5422363-.5650024 2.3140794-2.0838546 6.2898637-2.831851 8.7968751-.8115234z"/><path d="m25.6248627 55.6654396c-.1262207 1.2356567.9147949 2.473877 2.1550293 2.5435791 1.426754.0801315 2.888752-1.4769363 2.199707-3.0420532-.2127438-.8409653-.920208-1.5157585-1.7429199-1.6036377-1.2349854-.1320191-2.4855957.8664551-2.6118164 2.1021118z"/></g></svg>