<?xml version="1.0" encoding="UTF-8"?>
<svg width="32px" height="32px" viewBox="0 0 32 32" version="1.1" xmlns="http://www.w3.org/2000/svg" xmlns:xlink="http://www.w3.org/1999/xlink">
    <!-- Generator: Sketch 59.1 (86144) - https://sketch.com -->
    <title>icons-local / dashboard</title>
    <desc>Created with Sketch.</desc>
    <defs>
        <path d="M6.66666667,6.66666667 L6.66666667,12 L12,12 L12,6.66666667 L6.66666667,6.66666667 Z M6.66666667,4 L12,4 C13.4727593,4 14.6666667,5.19390733 14.6666667,6.66666667 L14.6666667,12 C14.6666667,13.4727593 13.4727593,14.6666667 12,14.6666667 L6.66666667,14.6666667 C5.19390733,14.6666667 4,13.4727593 4,12 L4,6.66666667 C4,5.19390733 5.19390733,4 6.66666667,4 Z M20,6.66666667 L20,12 L25.3333333,12 L25.3333333,6.66666667 L20,6.66666667 Z M20,4 L25.3333333,4 C26.8060927,4 28,5.19390733 28,6.66666667 L28,12 C28,13.4727593 26.8060927,14.6666667 25.3333333,14.6666667 L20,14.6666667 C18.5272407,14.6666667 17.3333333,13.4727593 17.3333333,12 L17.3333333,6.66666667 C17.3333333,5.19390733 18.5272407,4 20,4 Z M20,20 L20,25.3333333 L25.3333333,25.3333333 L25.3333333,20 L20,20 Z M20,17.3333333 L25.3333333,17.3333333 C26.8060927,17.3333333 28,18.5272407 28,20 L28,25.3333333 C28,26.8060927 26.8060927,28 25.3333333,28 L20,28 C18.5272407,28 17.3333333,26.8060927 17.3333333,25.3333333 L17.3333333,20 C17.3333333,18.5272407 18.5272407,17.3333333 20,17.3333333 Z M6.66666667,20 L6.66666667,25.3333333 L12,25.3333333 L12,20 L6.66666667,20 Z M6.66666667,17.3333333 L12,17.3333333 C13.4727593,17.3333333 14.6666667,18.5272407 14.6666667,20 L14.6666667,25.3333333 C14.6666667,26.8060927 13.4727593,28 12,28 L6.66666667,28 C5.19390733,28 4,26.8060927 4,25.3333333 L4,20 C4,18.5272407 5.19390733,17.3333333 6.66666667,17.3333333 Z" id="path-1"></path>
    </defs>
    <g id="Page-1" stroke="none" stroke-width="1" fill="none" fill-rule="evenodd">
        <g id="main" transform="translate(-20.000000, -184.000000)">
            <g id="Side-Nav">
                <g id="menu" transform="translate(8.000000, 172.000000)">
                    <g id="icons-local-/-dashboard_export" transform="translate(12.000000, 12.000000)">
                        <g id="icons-local-/-dashboard">
                            <mask id="mask-2" fill="white">
                                <use xlink:href="#path-1"></use>
                            </mask>
                            <g id="Mask" fill-rule="nonzero"></g>
                            <g id="color/white" mask="url(#mask-2)" fill="#FFFFFF" fill-rule="evenodd">
                                <rect id="Change-Fill-Color" x="0" y="0" width="32" height="32"></rect>
                            </g>
                        </g>
                    </g>
                </g>
            </g>
        </g>
    </g>
</svg>