<?xml version="1.0" encoding="utf-8"?>
<!-- Generator: Adobe Illustrator 23.0.6, SVG Export Plug-In . SVG Version: 6.00 Build 0)  -->
<svg version="1.1" id="Layer_1" xmlns="http://www.w3.org/2000/svg" xmlns:xlink="http://www.w3.org/1999/xlink" x="0px" y="0px"
	 viewBox="0 0 265.2 155.3" style="enable-background:new 0 0 265.2 155.3;" xml:space="preserve">
<style type="text/css">
	.st0{opacity:1;}
	.st1{fill:#000000;}
</style>
<g>
	<g>
		<polygon points="185.7,94.1 131.3,70.7 131,70.3 131,45.1 132,45.1 132,70 186.1,93.2 		"/>
		<path d="M185.9,94.1H77.2l-0.4-0.8L131.1,0h0.9l54.3,93.4L185.9,94.1z M78.1,93.1H185L131.5,1.2L78.1,93.1z"/>
		<polygon points="185.7,94.1 131.3,70.7 131,70.3 131,45.1 132,45.1 132,70 186.1,93.2 		"/>
		<path d="M185.9,94.1H77.2l-0.3-0.9l54.3-48.5l0.8,0.4V70l54,23.2L185.9,94.1z M78.5,93.1h104.9l-52.1-22.4l-0.3-0.5v-24L78.5,93.1
			z"/>
		<path d="M185.9,94.1H77.2l-0.2-1l54.3-23.3h0.4l54.3,23.3L185.9,94.1z M79.6,93.1h103.8l-51.9-22.3L79.6,93.1z"/>
		<rect x="131" y="70.3" width="1" height="23.3"/>
		<rect x="131" y="0.3" width="1" height="44.9"/>
	</g>
</g>
<g>
	<g class="st0">
		<path class="st1" d="M22.9,143c0,1.9-0.3,3.5-0.8,5.1s-1.3,2.8-2.3,3.9c-1,1.1-2.2,1.9-3.6,2.5c-1.4,0.6-3,0.9-4.7,0.9
			c-1.7,0-3.2-0.3-4.6-0.9c-1.4-0.6-2.6-1.4-3.6-2.5c-1-1.1-1.8-2.4-2.4-3.9S0,144.9,0,143c0-1.8,0.3-3.5,0.8-5
			c0.6-1.5,1.3-2.8,2.4-3.9c1-1.1,2.2-1.9,3.6-2.5c1.4-0.6,3-0.9,4.6-0.9c1.7,0,3.3,0.3,4.7,0.9c1.4,0.6,2.6,1.4,3.6,2.5
			c1,1.1,1.8,2.4,2.3,3.9C22.7,139.5,22.9,141.2,22.9,143z M21.1,143c0-1.7-0.2-3.2-0.7-4.5c-0.5-1.3-1.1-2.5-2-3.4
			c-0.8-0.9-1.9-1.6-3.1-2.1c-1.2-0.5-2.5-0.7-4-0.7c-1.4,0-2.7,0.2-3.9,0.7s-2.2,1.2-3.1,2.1c-0.9,0.9-1.5,2.1-2,3.4
			c-0.5,1.3-0.7,2.8-0.7,4.5c0,1.7,0.2,3.2,0.7,4.5c0.5,1.3,1.1,2.5,2,3.4c0.9,0.9,1.9,1.6,3.1,2.1s2.5,0.7,3.9,0.7
			c1.5,0,2.8-0.2,4-0.7c1.2-0.5,2.2-1.2,3.1-2.1c0.8-0.9,1.5-2.1,2-3.4C20.9,146.2,21.1,144.7,21.1,143z"/>
		<path class="st1" d="M37.2,145.4v9.7h-1.7V131h6.2c2.8,0,4.9,0.6,6.4,1.9s2.2,3,2.2,5.3c0,1.1-0.2,2-0.6,2.9s-1,1.6-1.7,2.3
			c-0.7,0.6-1.6,1.1-2.7,1.5c-1.1,0.4-2.2,0.5-3.6,0.5H37.2z M37.2,144h4.5c1.1,0,2-0.1,2.9-0.4c0.8-0.3,1.5-0.7,2.1-1.2
			c0.6-0.5,1-1.1,1.3-1.8c0.3-0.7,0.5-1.5,0.5-2.3c0-1.8-0.6-3.3-1.7-4.3c-1.1-1-2.8-1.5-5.1-1.5h-4.5V144z"/>
		<path class="st1" d="M75.9,131v1.4H63.2v9.7h10.5v1.4H63.2v10h12.7v1.4H61.5V131H75.9z"/>
		<path class="st1" d="M89.2,131c0.1,0,0.2,0.1,0.3,0.3l15.6,20.8c0-0.3-0.1-0.7-0.1-1V131h1.5V155h-0.8c-0.3,0-0.5-0.1-0.6-0.3
			l-15.6-20.9c0,0.3,0.1,0.7,0.1,1V155h-1.5V131h0.9C88.9,131,89.1,131,89.2,131z"/>
		<path class="st1" d="M147.3,131v1.4h-12.7v10.1h11v1.4h-11v11h-1.8V131H147.3z"/>
		<path class="st1" d="M160.5,153.6h11.4v1.5h-13.1V131h1.7V153.6z"/>
		<path class="st1" d="M202.6,143c0,1.9-0.3,3.5-0.8,5.1c-0.6,1.5-1.3,2.8-2.3,3.9c-1,1.1-2.2,1.9-3.6,2.5c-1.4,0.6-3,0.9-4.7,0.9
			c-1.7,0-3.2-0.3-4.6-0.9c-1.4-0.6-2.6-1.4-3.6-2.5s-1.8-2.4-2.4-3.9c-0.6-1.5-0.8-3.2-0.8-5.1c0-1.8,0.3-3.5,0.8-5
			c0.6-1.5,1.3-2.8,2.4-3.9c1-1.1,2.2-1.9,3.6-2.5c1.4-0.6,3-0.9,4.6-0.9c1.7,0,3.3,0.3,4.7,0.9c1.4,0.6,2.6,1.4,3.6,2.5
			c1,1.1,1.8,2.4,2.3,3.9C202.3,139.5,202.6,141.2,202.6,143z M200.8,143c0-1.7-0.2-3.2-0.7-4.5c-0.5-1.3-1.1-2.5-2-3.4
			c-0.8-0.9-1.9-1.6-3.1-2.1c-1.2-0.5-2.5-0.7-4-0.7c-1.4,0-2.7,0.2-3.9,0.7c-1.2,0.5-2.2,1.2-3.1,2.1c-0.9,0.9-1.5,2.1-2,3.4
			c-0.5,1.3-0.7,2.8-0.7,4.5c0,1.7,0.2,3.2,0.7,4.5c0.5,1.3,1.1,2.5,2,3.4c0.9,0.9,1.9,1.6,3.1,2.1c1.2,0.5,2.5,0.7,3.9,0.7
			c1.5,0,2.8-0.2,4-0.7c1.2-0.5,2.2-1.2,3.1-2.1c0.8-0.9,1.5-2.1,2-3.4C200.5,146.2,200.8,144.7,200.8,143z"/>
		<path class="st1" d="M236,143c0,1.9-0.3,3.5-0.8,5.1c-0.6,1.5-1.3,2.8-2.3,3.9c-1,1.1-2.2,1.9-3.6,2.5c-1.4,0.6-3,0.9-4.7,0.9
			c-1.7,0-3.2-0.3-4.6-0.9c-1.4-0.6-2.6-1.4-3.6-2.5s-1.8-2.4-2.4-3.9c-0.6-1.5-0.8-3.2-0.8-5.1c0-1.8,0.3-3.5,0.8-5
			c0.6-1.5,1.3-2.8,2.4-3.9c1-1.1,2.2-1.9,3.6-2.5c1.4-0.6,3-0.9,4.6-0.9c1.7,0,3.3,0.3,4.7,0.9c1.4,0.6,2.6,1.4,3.6,2.5
			c1,1.1,1.8,2.4,2.3,3.9C235.8,139.5,236,141.2,236,143z M234.2,143c0-1.7-0.2-3.2-0.7-4.5c-0.5-1.3-1.1-2.5-2-3.4
			c-0.8-0.9-1.9-1.6-3.1-2.1c-1.2-0.5-2.5-0.7-4-0.7c-1.4,0-2.7,0.2-3.9,0.7c-1.2,0.5-2.2,1.2-3.1,2.1c-0.9,0.9-1.5,2.1-2,3.4
			c-0.5,1.3-0.7,2.8-0.7,4.5c0,1.7,0.2,3.2,0.7,4.5c0.5,1.3,1.1,2.5,2,3.4c0.9,0.9,1.9,1.6,3.1,2.1c1.2,0.5,2.5,0.7,3.9,0.7
			c1.5,0,2.8-0.2,4-0.7c1.2-0.5,2.2-1.2,3.1-2.1c0.8-0.9,1.5-2.1,2-3.4C234,146.2,234.2,144.7,234.2,143z"/>
		<path class="st1" d="M250.3,144.2V155h-1.7V131h6.1c2.8,0,4.9,0.5,6.2,1.6c1.4,1.1,2.1,2.6,2.1,4.7c0,0.9-0.2,1.8-0.5,2.5
			c-0.3,0.8-0.8,1.4-1.4,2c-0.6,0.6-1.3,1-2.2,1.4s-1.8,0.6-2.8,0.7c0.3,0.2,0.5,0.4,0.7,0.7l8.3,10.4h-1.5c-0.2,0-0.3,0-0.5-0.1
			c-0.1-0.1-0.3-0.2-0.4-0.3l-7.7-9.8c-0.2-0.2-0.4-0.4-0.6-0.5c-0.2-0.1-0.6-0.2-1-0.2H250.3z M250.3,142.9h4.2
			c1.1,0,2-0.1,2.9-0.4c0.8-0.3,1.6-0.6,2.1-1.1c0.6-0.5,1-1,1.3-1.7c0.3-0.7,0.5-1.4,0.5-2.3c0-1.7-0.6-3-1.7-3.8
			c-1.1-0.8-2.8-1.2-4.9-1.2h-4.4V142.9z"/>
	</g>
</g>
</svg>
