<?xml version="1.0" encoding="utf-8"?>
<!-- Generator: Adobe Illustrator 21.0.0, SVG Export Plug-In . SVG Version: 6.00 Build 0)  -->
<svg version="1.1" id="Layer_1" xmlns="http://www.w3.org/2000/svg" xmlns:xlink="http://www.w3.org/1999/xlink" x="0px" y="0px"
	 viewBox="0 0 349.1 349.1" style="enable-background:new 0 0 349.1 349.1;" xml:space="preserve">
<style type="text/css">
	.st0{fill:#009944;}
	.st1{fill:#004098;}
	.st2{fill:#E60012;}
</style>
<path class="st0" d="M202.6,242.8c0,0-21-20.1-33.2-26.6c0,0-12.5-7.5-24.6-10.6c0,0-14.9-3.9-32.9-2.5c0,0-27,2.2-33.1,1.5
	c0,0-15.6,1.4-32-6.5c0,0-15.4-6.1-19.1-22.4H0c0,0-0.1,25.9,30.6,42.9c0,0,15.6,9.8,40.1,11.8c0,0,7.5,2.1,28.6,0.6
	c0,0,25.6-2.1,41.1,8.4c0,0,17.9,11,36.6,32.8"/>
<path class="st1" d="M326.8,175.8c0,0-15.4-11.6-35.6-17c0,0-15.8-4.4-45.2-6.5c0,0-56.6-2.5-66-1.6l-5.9-67.4h-9l-0.2-6.9
	c0,0,8-0.6,10.9-2.2c0,0,4,0.4,2.9-8.8c0,0-11.2-2.5-16-11.9v-8.2h-4v2.8c0,0-3.2,2.5-14.6,2.2c0,0-13.1,0.1-14.8-1.9v-2.9h-4V54
	c0,0-2.8,8.2-15.6,12c0,0-1.4,7.5,2.6,8.8c0,0,4.9,1.5,11,2v6.6h-8.5l-2.4,31.6l-1.7,27.7l-2.4,34.1l73.9-0.9c0,0,47.8,0.9,64,2
	c0,0,36,0.4,55.4,14.9c0,0,12.8,7.8,12,18.2c0,0-1.2,7.6-8.2,10.6c0,0-6.1,4.9-18.8,2.5c0,0-15.4-3.1-22.5-0.5
	c0,0-8.2,2.6-14.7,14.8c0,0-7.5,16.1-21,16.4c0,0-10.5,2.8-25.8-12L177.1,272c0,0,16.8,18.9,32.1,26.6c0,0,21.9,14.1,41.9-4.8
	c0,0,7.2-6.2,15.5-19.9c0,0,9.9-17.2,27-18.8c0,0,19-1.1,24.4-2c0,0,25.6-1.6,30.6-29C348.6,224.3,354.2,195.1,326.8,175.8z
	 M131.5,100.3h-8.9v-8.9h8.9V100.3z M149.3,100.2h-8.9v-8.9h8.9V100.2z M166.4,100.2h-8.9v-8.9h8.9V100.2z"/>
<g>
	<path class="st2" d="M90.6,120.1c0,0-12.4,8.4-16.2,9c0,0-13.4,5.5-27.8,1.1v1.2c0,0,2.6,0.5,2.9,0.9c0,0-0.1,0.9-2.9,0v1.7
		c0,0,2.4,0.8,5.2,1.4c0,0-0.2,0.8-5.2-0.2v1.9c0,0,5.8,2.2,10.1,2.1c0,0,0.7,1.4-3.8,1.1l-4.9-0.6c0,0-0.6,0.6,0.9,1.1
		c0,0,2.2,0.9,2.6,1.4c0,0-0.4,0.1-4.8-0.4v1.2c0,0,5.4,1.5,7,2.5c0,0-0.4,0.6-3.1-0.2l-3.8-0.9v2.1c0,0,3.6,0.9,4.2,1.2l0.1,0.5
		c0,0-1.7,0.1-2.8-0.1l-1.3-0.8v1.9l1.1,0.4l-1.2,0.9v1.9c0,0,3.9,0.8,6.6,0.8c0,0,2.5,0.8,3.8,1.1c0,0,0.8,1-2.6,0.4
		c0,0-3.2-0.2-4.8-0.3c0,0-1.1,1.1-2.9,0.4v2.8c0,0,15.4,3.6,28.8-2.1c0,0,4-1.7,12.6-6.7c0,0,10.6-7.2,22.2-6.1l1.7-27.7
		C112.4,115.1,100,114.3,90.6,120.1z M48.3,150.4c0,0,3.9,0.2,4.5,0.8C52.8,151.2,50.3,152.9,48.3,150.4z M56.8,137.2
		c0,0-4.2-0.6-4.1-1.5c0,0,3-0.2,5,0.5c0,0,3.6,0,4.6,0C62.3,136.2,60,137.8,56.8,137.2z"/>
</g>
</svg>
