<?xml version="1.0" encoding="UTF-8"?>
<svg width="48px" height="48px" viewBox="0 0 48 48" version="1.1" xmlns="http://www.w3.org/2000/svg" xmlns:xlink="http://www.w3.org/1999/xlink">
    <title>Group</title>
    <g id="Page-1" stroke="none" stroke-width="1" fill="none" fill-rule="evenodd">
        <g id="Desktop-HD" transform="translate(-120.000000, -19.000000)" fill="#000000" fill-rule="nonzero">
            <g id="Group" transform="translate(120.000000, 19.000000)">
                <path d="M9,20.25 L9,18 L18,18 L18,13.5 L20.25,13.5 L20.25,15.75 L22.5,15.75 L22.5,22.5 L20.25,22.5 L20.25,20.25 L9,20.25 Z M6.75,18 L6.75,20.25 L4.5,20.25 L4.5,22.5 L0,22.5 L0,18 L6.75,18 Z M15.75,0 L15.75,15.75 L0,15.75 L0,0 L15.75,0 Z M13.5,2.25 L2.25,2.25 L2.25,13.5 L13.5,13.5 L13.5,2.25 Z M11.25,4.5 L11.25,11.25 L4.5,11.25 L4.5,4.5 L11.25,4.5 Z M22.5,0 L22.5,9 L20.25,9 L20.25,6.75 L18,6.75 L18,4.5 L20.25,4.5 L20.25,0 L22.5,0 Z M30,9 L30,18 L27.75,18 L27.75,20.25 L25.5,20.25 L25.5,22.5 L23.25,22.5 L23.25,18 L25.5,18 L25.5,15.75 L27.75,15.75 L27.75,9 L30,9 Z M34.5,18 L34.5,20.25 L41.25,20.25 L41.25,22.5 L32.25,22.5 L32.25,20.25 L30,20.25 L30,18 L34.5,18 Z M48,20.25 L48,22.5 L45.75,22.5 L45.75,20.25 L48,20.25 Z M43.5,18 L43.5,20.25 L41.25,20.25 L41.25,18 L43.5,18 Z M25.5,13.5 L25.5,15.75 L23.25,15.75 L23.25,13.5 L25.5,13.5 Z M48,0 L48,15.75 L32.25,15.75 L32.25,0 L48,0 Z M45.75,2.25 L34.5,2.25 L34.5,13.5 L45.75,13.5 L45.75,2.25 Z M25.5,9 L25.5,11.25 L23.25,11.25 L23.25,9 L25.5,9 Z M43.5,4.5 L43.5,11.25 L36.75,11.25 L36.75,4.5 L43.5,4.5 Z M30,0 L30,2.25 L27.75,2.25 L27.75,4.5 L30,4.5 L30,6.75 L27.75,6.75 L27.75,9 L25.5,9 L25.5,4.5 L23.25,4.5 L23.25,2.25 L25.5,2.25 L25.5,0 L30,0 Z M15.75,32.25 L15.75,48 L0,48 L0,32.25 L15.75,32.25 Z M20.25,41.25 L20.25,43.5 L22.5,43.5 L22.5,48 L18,48 L18,41.25 L20.25,41.25 Z M13.5,34.5 L2.25,34.5 L2.25,45.75 L13.5,45.75 L13.5,34.5 Z M11.25,36.75 L11.25,43.5 L4.5,43.5 L4.5,36.75 L11.25,36.75 Z M22.5,30 L22.5,34.5 L20.25,34.5 L20.25,39 L18,39 L18,30 L22.5,30 Z M4.5,27.75 L4.5,30 L0,30 L0,27.75 L4.5,27.75 Z M11.25,23.25 L11.25,27.75 L15.75,27.75 L15.75,25.5 L13.5,25.5 L13.5,23.25 L22.5,23.25 L22.5,27.75 L18,27.75 L18,30 L9,30 L9,27.75 L6.75,27.75 L6.75,25.5 L4.5,25.5 L4.5,23.25 L11.25,23.25 Z M36.75,27.75 L36.75,30 L39,30 L39,32.25 L43.5,32.25 L43.5,27.75 L45.75,27.75 L45.75,30 L48,30 L48,34.5 L36.75,34.5 L36.75,39 L39,39 L39,48 L32.25,48 L32.25,43.5 L34.5,43.5 L34.5,41.25 L32.25,41.25 L32.25,36.75 L34.5,36.75 L34.5,27.75 L36.75,27.75 Z M45.75,43.5 L45.75,45.75 L48,45.75 L48,48 L43.5,48 L43.5,43.5 L45.75,43.5 Z M25.5,45.75 L25.5,48 L23.25,48 L23.25,45.75 L25.5,45.75 Z M30,45.75 L30,48 L27.75,48 L27.75,45.75 L30,45.75 Z M30,41.25 L30,43.5 L27.75,43.5 L27.75,41.25 L30,41.25 Z M48,41.25 L48,43.5 L45.75,43.5 L45.75,41.25 L48,41.25 Z M32.25,27.75 L32.25,32.25 L30,32.25 L30,30 L27.75,30 L27.75,34.5 L32.25,34.5 L32.25,36.75 L27.75,36.75 L27.75,39 L25.5,39 L25.5,41.25 L23.25,41.25 L23.25,34.5 L25.5,34.5 L25.5,30 L27.75,30 L27.75,27.75 L32.25,27.75 Z M45.75,39 L45.75,41.25 L41.25,41.25 L41.25,39 L45.75,39 Z M25.5,27.75 L25.5,30 L23.25,30 L23.25,27.75 L25.5,27.75 Z M39,23.25 L39,27.75 L36.75,27.75 L36.75,25.5 L34.5,25.5 L34.5,23.25 L39,23.25 Z M48,23.25 L48,27.75 L45.75,27.75 L45.75,25.5 L41.25,25.5 L41.25,23.25 L48,23.25 Z M32.25,23.25 L32.25,25.5 L27.75,25.5 L27.75,23.25 L32.25,23.25 Z" id="Combined-Shape"></path>
            </g>
        </g>
    </g>
</svg>