<?xml version="1.0" encoding="utf-8"?>
<!-- Generator: Adobe Illustrator 24.0.1, SVG Export Plug-In . SVG Version: 6.00 Build 0)  -->
<svg version="1.1" id="Layer_1" xmlns="http://www.w3.org/2000/svg" xmlns:xlink="http://www.w3.org/1999/xlink" x="0px" y="0px"
	 viewBox="0 0 301.6 68.7" style="enable-background:new 0 0 301.6 68.7;" xml:space="preserve">
<style type="text/css">
	.st0{fill:#D11519;}
</style>
<g>
	<path class="st0" d="M37.7,0c-2.1-0.2-2.2,1.1-2.2,1.1l0,12.4c0,0,0.1,3.5-1.8,5c-0.5,0.4-2.2,1.6-5.5,1.1
		c-1.2-0.2-2.8-0.8-4.4-0.8c-2.4,0-4.9,0.9-6.4,2.1c-1.5,1.3-2.7,3.2-3,5.2c-0.4,2.8,0.4,5.3,2.1,7.1c1.7,1.9,3.6,3.2,7.1,2.9
		c3.1-0.2,4.9-1.9,6.1-3.2c1.8-2.1,2-5.4,2.3-7.2c0,0,0.1-4.3,4-7.7c0,0,3-2.5,6.2-2.7c10.4-0.8,12.7,8.3,12.7,8.3
		c2.1,8.4-4.2,12.6-4.2,12.6c4.9,2.9,6.1,8.3,6.1,8.3c2.4,10.1-5.9,14.9-5.9,14.9c-11.8,6.5-18.7-4.1-18.7-4.1
		c-5.4-9.5,1-16.3,1-16.3c0.7-0.8,1.3-0.1,1.3-0.1c0.8,1,2.5,1.5,2.5,1.5c0.6,0.3,0.2,0.8,0.2,0.8c-4.2,3.9-2.3,9.3-2.3,9.3
		c2.8,7.8,10.4,6.4,10.4,6.4c8.4-2,7.7-9.6,7.7-9.6c-1-9.1-9.2-8.9-9.2-8.9c-4.8,0-7.9-3-7.9-3c-0.5-0.2-0.1-0.8-0.1-0.8
		c0.7-0.9,1.1-2.7,1.1-2.7c0.4-1.1,1.1-0.4,1.1-0.4c3.3,3.9,7.9,2.3,7.9,2.3c5.5-1.8,5.1-7.5,5.1-7.5s-0.1-6.1-6.9-7
		c0,0-2.7-0.2-4.9,1.5c0,0-2.5,1.8-2.9,4.9c-0.4,3.8-0.8,7.2-3.5,10.3c-1.7,2-4.5,4.3-9,4.6c-4.4,0.3-7.5-1.5-9.7-3.5
		c-3.1-2.8-4.7-7.2-4-11.3c0.5-3.3,2.3-6.4,4.7-8.3c2.3-1.8,5.3-2.9,9.2-2.8c2.3,0.1,2.7,0.3,4.9,0.8c0,0,2.1,0.8,2.2-1.7V1.4
		c-0.2-1.5-1.4-1.2-1.4-1.2C12.9,2.5,0,16.9,0,34.3c0,19,15.4,34.4,34.4,34.4c19,0,34.4-15.4,34.4-34.4C68.8,16.4,55.1,1.7,37.7,0z"
		/>
	<g>
		<g>
			<path class="st0" d="M108.9,10.4H87.7l0.1,5.6h21.7c3.2,0.2,3.1,3.1,3.1,3.1v12c0,3-3.1,3.1-3.1,3.1H93.2v-9.4l-5.4,0v14.9h21.1
				c0,0,8.9,0.5,9.2-9.1l0-10.9C118.1,19.6,118.6,10.5,108.9,10.4z"/>
			<path class="st0" d="M155.5,19c0,0,0-0.2,0-0.4v-0.3l0,0c-0.3-2.1-1.8-7.7-9.2-7.8h-12c0,0-9-0.7-9.3,9.3v10.5c0,0-0.5,9,9.4,9.4
				h11.9c9.8-0.2,9.3-9.4,9.3-9.4L155.5,19L155.5,19z M149.9,30.9c0,0,0,2.9-3.1,3.2h-13.2c-3-0.1-3.2-3.2-3.2-3.2l0-11.9
				c0.3-3.3,3.1-3.1,3.1-3.1h12.8c0,0,3.6-0.4,3.6,3.4l0,0L149.9,30.9z"/>
			<path class="st0" d="M183.5,10.4h-21.4v29.2l5.3,0V15.9h15.4c0,0,4.3-0.6,4.2,3.8l0,19.9l5.5,0V18.2
				C191.2,10.1,183.5,10.4,183.5,10.4z"/>
			<path class="st0" d="M223.7,34.2h-16.3c0,0-3.1-0.1-3.1-3.1v-12c0,0-0.1-2.9,3.1-3.1h16.2l0-5.6H208c-9.7,0.2-9.3,9.2-9.3,9.2
				l0,10.9c0.3,9.6,9.2,9.1,9.2,9.1h21.1V24.9l-5.4,0V34.2z"/>
			<path class="st0" d="M260.2,34.1H244c0,0-3.1-0.1-3.1-3.1V19c0,0-0.1-2.9,3.1-3.1h16.2l0-5.6h-15.6c-9.7,0.2-9.2,9.2-9.2,9.2
				l0,10.9c0.3,9.6,9.2,9.1,9.2,9.1h21.1V24.7l-5.4,0V34.1z"/>
			<path class="st0" d="M296.3,10.4v23.7h-15.4c0,0-4.3,0.6-4.2-3.8l0-19.9l-5.5,0v21.4c1.2,8.2,8.9,7.8,8.9,7.8h21.5V10.4
				L296.3,10.4z"/>
		</g>
		<g>
			<path class="st0" d="M88.9,61.8V51.1h5.8v1.8h-3.9v2.6h3.9v1.8h-3.9v2.6h3.9v1.9H88.9z"/>
			<path class="st0" d="M108.1,61.8V51.1h2v8.8h3.3v1.9H108.1z"/>
			<path class="st0" d="M126.9,61.8V51.1h5.8v1.8h-3.9v2.6h3.9v1.8h-3.9v2.6h3.9v1.9H126.9z"/>
			<path class="st0" d="M154.1,61.2c-0.8,0.5-1.8,0.8-2.9,0.8c-0.8,0-1.5-0.2-2.2-0.5c-0.7-0.3-1.3-0.8-1.8-1.4
				c-0.4-0.5-0.8-1.1-1-1.7c-0.2-0.7-0.4-1.3-0.4-2.1c0-0.8,0.1-1.5,0.4-2.1c0.3-0.7,0.7-1.3,1.2-1.8c0.5-0.5,1.1-0.9,1.7-1.2
				c0.6-0.3,1.3-0.4,2.1-0.4c1.1,0,2.1,0.3,2.9,0.8c0.9,0.6,1.5,1.4,2,2.5h-2.2c-0.3-0.5-0.7-0.8-1.2-1.1c-0.4-0.2-0.9-0.3-1.5-0.3
				c-0.5,0-0.9,0.1-1.3,0.2c-0.4,0.2-0.8,0.4-1.1,0.7c-0.4,0.3-0.6,0.7-0.8,1.2c-0.2,0.4-0.3,0.9-0.3,1.4c0,0.5,0.1,1,0.2,1.4
				c0.2,0.4,0.4,0.8,0.7,1.2c0.3,0.3,0.7,0.6,1.1,0.8c0.4,0.2,0.9,0.3,1.3,0.3c0.6,0,1-0.1,1.5-0.3c0.4-0.2,0.8-0.5,1.2-1h2.3
				C155.6,59.8,154.9,60.6,154.1,61.2z"/>
			<path class="st0" d="M171.2,61.8v-8.9h-2.1v-1.9h6.1v1.9h-2.1v8.9H171.2z"/>
			<path class="st0" d="M194.7,56.2c-0.4,0.6-1,1-1.8,1.2l3.2,4.3h-2.5l-3-4.1h-0.1v4.1h-1.9V51.1h2.6c0.6,0,1.1,0,1.4,0.1
				c0.5,0.1,0.8,0.2,1.2,0.4c0.5,0.3,0.8,0.6,1.1,1.2c0.3,0.5,0.4,1,0.4,1.6C195.3,55,195.1,55.7,194.7,56.2z M192.9,53.2
				c-0.3-0.2-0.8-0.3-1.4-0.3h-0.9v2.9h0.8c0.7,0,1.2-0.1,1.5-0.3c0.3-0.2,0.5-0.6,0.5-1.1C193.4,53.8,193.2,53.5,192.9,53.2z"/>
			<path class="st0" d="M209.2,54.2c0.3-0.7,0.7-1.3,1.2-1.8c0.5-0.5,1.1-0.9,1.7-1.2c0.7-0.3,1.3-0.4,2.1-0.4
				c0.7,0,1.4,0.1,2.1,0.4c0.6,0.3,1.2,0.7,1.8,1.2c0.5,0.5,0.9,1.1,1.2,1.8c0.3,0.7,0.4,1.4,0.4,2.1c0,0.7-0.1,1.4-0.4,2.1
				c-0.2,0.6-0.6,1.2-1.1,1.7c-0.6,0.6-1.2,1-1.9,1.3c-0.7,0.3-1.4,0.5-2.2,0.5c-0.8,0-1.5-0.2-2.2-0.5c-0.7-0.3-1.3-0.8-1.8-1.4
				c-0.4-0.5-0.8-1.1-1-1.7c-0.2-0.7-0.4-1.3-0.4-2.1C208.8,55.6,209,54.9,209.2,54.2z M211.1,57.8c0.2,0.4,0.4,0.8,0.7,1.2
				c0.3,0.3,0.7,0.6,1.1,0.8c0.4,0.2,0.8,0.3,1.3,0.3c1,0,1.8-0.4,2.5-1.1c0.7-0.7,1-1.6,1-2.6c0-0.5-0.1-0.9-0.3-1.3
				c-0.2-0.4-0.4-0.8-0.7-1.1c-0.4-0.4-0.7-0.7-1.1-0.9c-0.4-0.2-0.9-0.3-1.4-0.3c-0.5,0-0.9,0.1-1.3,0.2c-0.4,0.2-0.8,0.4-1.1,0.7
				c-0.3,0.3-0.6,0.7-0.8,1.2c-0.2,0.4-0.3,0.9-0.3,1.4C210.8,56.9,210.9,57.3,211.1,57.8z"/>
			<path class="st0" d="M233.4,61.8V51.1h1.9l4.6,7.1v-7.1h1.9v10.7H240l-4.7-7.3v7.3H233.4z"/>
			<path class="st0" d="M255.8,61.8V51.1h2v10.7H255.8z"/>
			<path class="st0" d="M279.6,61.2c-0.8,0.5-1.8,0.8-2.9,0.8c-0.8,0-1.5-0.2-2.2-0.5c-0.7-0.3-1.3-0.8-1.8-1.4
				c-0.4-0.5-0.8-1.1-1-1.7c-0.2-0.7-0.4-1.3-0.4-2.1c0-0.8,0.1-1.5,0.4-2.1c0.3-0.7,0.7-1.3,1.2-1.8c0.5-0.5,1.1-0.9,1.7-1.2
				c0.6-0.3,1.3-0.4,2.1-0.4c1.1,0,2.1,0.3,2.9,0.8c0.9,0.6,1.5,1.4,2,2.5h-2.2c-0.3-0.5-0.7-0.8-1.2-1.1c-0.4-0.2-0.9-0.3-1.5-0.3
				c-0.5,0-0.9,0.1-1.3,0.2c-0.4,0.2-0.8,0.4-1.1,0.7c-0.4,0.3-0.6,0.7-0.8,1.2c-0.2,0.4-0.3,0.9-0.3,1.4c0,0.5,0.1,1,0.2,1.4
				c0.2,0.4,0.4,0.8,0.7,1.2c0.3,0.3,0.7,0.6,1.1,0.8c0.4,0.2,0.9,0.3,1.3,0.3c0.6,0,1-0.1,1.5-0.3c0.4-0.2,0.8-0.5,1.2-1h2.3
				C281.2,59.8,280.5,60.6,279.6,61.2z"/>
			<path class="st0" d="M296.6,58.3c0,0.6,0.2,1,0.4,1.3c0.2,0.3,0.6,0.4,1,0.4c0.4,0,0.8-0.1,1.1-0.4c0.3-0.3,0.4-0.6,0.4-1.1
				c0-0.5-0.1-0.8-0.4-1c-0.2-0.2-0.6-0.3-1.2-0.5c-0.4-0.1-0.8-0.3-1.2-0.5c-0.4-0.2-0.8-0.5-1-0.8c-0.2-0.2-0.3-0.5-0.5-0.8
				c-0.1-0.3-0.1-0.6-0.1-0.9c0-0.9,0.3-1.7,0.9-2.3c0.6-0.6,1.3-0.9,2.2-0.9c0.8,0,1.5,0.3,2,0.8c0.5,0.6,0.8,1.4,0.9,2.4h-1.9
				c0-0.5-0.1-0.8-0.3-1c-0.2-0.2-0.4-0.3-0.8-0.3c-0.4,0-0.6,0.1-0.8,0.3c-0.2,0.2-0.3,0.5-0.3,0.9c0,0.2,0,0.3,0,0.4
				c0,0.1,0.1,0.2,0.2,0.3c0.1,0.1,0.3,0.2,0.5,0.3c0.1,0.1,0.4,0.1,0.7,0.2l0.7,0.2c0.7,0.3,1.2,0.7,1.6,1.2
				c0.4,0.5,0.6,1.2,0.6,1.9c0,1-0.3,1.9-0.9,2.5c-0.6,0.7-1.4,1-2.4,1c-0.9,0-1.7-0.3-2.3-1c-0.6-0.7-0.9-1.5-0.9-2.6H296.6z"/>
		</g>
	</g>
</g>
</svg>
