<svg xmlns="http://www.w3.org/2000/svg" xmlns:xlink="http://www.w3.org/1999/xlink" width="363" height="69" viewBox="0 0 363 69">
    <defs>
        <path id="a" d="M0 .038h28.128v32.87H0z"/>
        <path id="c" d="M.29.11h57.908v58.588H.289z"/>
        <path id="e" d="M.409.207h.204v.206H.409z"/>
        <path id="g" d="M.409.207h.204v.206H.409z"/>
    </defs>
    <g fill="none" fill-rule="evenodd">
        <path fill="#231815" d="M44.841 43.997l3.646-25.68h-7.085l-4.424 31.38H55.66l.778-5.7zM66.37 18.317l-4.423 31.38h7.085l4.424-31.38zM100.023 18.317L89.814 40.529l-3.372-22.212h-6.938l5.838 31.38h6.38l15.237-31.38z"/>
        <g transform="translate(4.496 17.49)">
            <mask id="b" fill="#fff">
                <use xlink:href="#a"/>
            </mask>
            <path fill="#231815" d="M20.536 16.522C19.44 24.282 17.04 27.43 12.51 27.43c-1.75 0-3.011-.723-3.896-1.755C7.178 24 6.813 21.33 7.502 16.445l.005-.043c1.071-7.416 3.422-10.926 7.952-10.926 1.749 0 3.1.521 3.982 1.55 1.44 1.68 1.787 4.583 1.095 9.496M25.407 3.8C23.447 1.585 20.282.08 16.397.04 6.8-.065 1.75 5.852.277 16.297l-.006.044c-.79 5.611.174 10 2.562 12.793 1.936 2.263 4.977 3.56 8.814 3.749 9.567.47 15.085-5.849 16.253-16.469.648-5.895-.057-9.859-2.493-12.613" mask="url(#b)"/>
        </g>
        <path fill="#231815" d="M112.857 18.317l-4.424 31.38h19.177l.74-5.252h-12.092l1.297-8.594h10.87l.663-5.306h-10.87l.984-6.977h11.441l.74-5.251z"/>
        <g transform="translate(142.185 4.676)">
            <mask id="d" fill="#fff">
                <use xlink:href="#c"/>
            </mask>
            <path fill="#A4D233" d="M44.478 32.963c-3.165 13.872-12.552 23.524-20.966 21.56-8.414-1.966-12.668-14.805-9.503-28.677 3.166-13.872 12.553-23.525 20.966-21.56 8.414 1.966 12.669 14.805 9.503 28.677M29.243.111C13.253.11.29 13.226.29 29.405c0 16.178 12.964 29.293 28.954 29.293 15.992 0 28.955-13.115 28.955-29.293C58.198 13.225 45.235.11 29.243.11" mask="url(#d)"/>
        </g>
        <path fill="#F2827F" d="M180.22 20.372c-.965 4.194-4.147 7.02-7.108 6.328-2.964-.694-4.586-4.651-3.638-8.838.963-4.178 4.136-7.007 7.098-6.318 2.972.695 4.6 4.647 3.647 8.828"/>
        <g transform="translate(4.087 62.961)">
            <mask id="f" fill="#fff">
                <use xlink:href="#e"/>
            </mask>
        </g>
        <g transform="translate(4.087 62.961)">
            <mask id="h" fill="#fff">
                <use xlink:href="#g"/>
            </mask>
        </g>
        <path fill="#231815" d="M222.979 38.078l12.834-19.898h-7.683l-7.855 12.717-4.236-12.717h-7.227l7.14 18.871-1.763 12.508h7.086l1.656-11.405zM256.13 33.93c-1.099 7.799-3.512 10.963-8.064 10.963-1.759 0-3.027-.727-3.916-1.764-1.443-1.683-1.81-4.368-1.119-9.276l.006-.043c1.077-7.454 3.439-10.98 7.993-10.98 1.756 0 3.113.523 4.001 1.558 1.446 1.687 1.796 4.604 1.1 9.542m4.896-12.784c-1.97-2.227-5.151-3.738-9.056-3.78-9.644-.105-14.72 5.84-16.2 16.338l-.006.044c-.796 5.64.174 10.051 2.574 12.858 1.945 2.274 5.002 3.578 8.858 3.767 9.615.472 15.161-5.878 16.335-16.551.652-5.925-.057-9.908-2.505-12.676M320.875 18.18L317.94 39.6l-7.743-21.42h-7.332l-4.424 31.38h6.543l3.245-22.095 7.858 22.095h6.9l4.424-31.38zM356.72 39.164c-.915 6.32-5.673 11.856-14.476 11.279-4.202-.276-6.953-1.94-8.89-4.607-1.884-2.598-2.954-6.9-2.016-12.647 1.923-11.787 7.742-16.059 15.823-15.703 5.567.245 8.766 2.905 10.476 7.923l-6.037 2.03c-.448-1.59-1.801-4.397-5.138-4.676-4.562-.381-7.369 3.592-8.43 11.127-.624 4.413-.976 10.239 4.603 10.893 3.832.45 6.736-1.256 8.052-6.15.216-.804.239-1.263.239-1.263h-6.729l.76-5.339 12.51-.013c.04.184-.354 4.433-.747 7.146M288.771 18.294l-2.697 19.32c-.703 3.958-.736 5.067-2.488 6.54-1.66 1.396-5.26 1.282-7.033-.542-1.398-1.44-.855-4.412-.474-7.459l2.248-17.86h-7.085l-2.561 20.096c-.684 5.273 1.128 8.129 4.562 10.35 2.736 1.77 6.52 2.02 8.966 1.682 4.343-.6 7.206-2.331 8.884-5.26 1.034-1.805 1.514-3.63 1.975-6.792l2.789-20.075h-7.086z"/>
    </g>
</svg>
