<?xml version="1.0" encoding="utf-8"?>
<!-- Generator: Adobe Illustrator 23.0.6, SVG Export Plug-In . SVG Version: 6.00 Build 0)  -->
<svg version="1.1" id="Layer_1" fill="white" xmlns="http://www.w3.org/2000/svg" xmlns:xlink="http://www.w3.org/1999/xlink" x="0px" y="0px"
	 viewBox="0 0 109.5 94.1" style="enable-background:new 0 0 109.5 94.1;" xml:space="preserve">
<g>
	<g>
		<polygon points="108.9,94.1 54.5,70.7 54.2,70.3 54.2,45.1 55.2,45.1 55.2,70 109.3,93.2 		"/>
		<path d="M109.1,94.1H0.4L0,93.3L54.3,0h0.9l54.3,93.4L109.1,94.1z M1.3,93.1h106.9L54.7,1.2L1.3,93.1z"/>
		<polygon points="108.9,94.1 54.5,70.7 54.2,70.3 54.2,45.1 55.2,45.1 55.2,70 109.3,93.2 		"/>
		<path d="M109.1,94.1H0.4l-0.3-0.9l54.3-48.5l0.8,0.4V70l54,23.2L109.1,94.1z M1.7,93.1h104.9L54.5,70.7l-0.3-0.5v-24L1.7,93.1z"/>
		<path d="M109.1,94.1H0.4l-0.2-1l54.3-23.3h0.4l54.3,23.3L109.1,94.1z M2.8,93.1h103.8L54.7,70.8L2.8,93.1z"/>
		<rect x="54.2" y="70.3" width="1" height="23.3"/>
		<rect x="54.2" y="0.3" width="1" height="44.9"/>
	</g>
</g>
</svg>
