<?xml version="1.0" encoding="UTF-8"?>
<svg width="54px" height="43px" viewBox="0 0 54 43" version="1.1" xmlns="http://www.w3.org/2000/svg" xmlns:xlink="http://www.w3.org/1999/xlink">
    <!-- Generator: Sketch 59.1 (86144) - https://sketch.com -->
    <title>logo/symbol</title>
    <desc>Created with Sketch.</desc>
    <defs>
        <path d="M27.6366134,0.83823103 L53.3357523,40.8954451 C53.4010248,40.9823709 53.4432049,41.0812404 53.4616233,41.1883756 C53.4713899,41.2481113 53.4733486,41.3089493 53.4642597,41.3892795 L53.4518072,41.4552639 C53.3869606,41.7226141 53.1636317,41.9372258 52.8577166,41.9893788 C52.8148464,41.9962929 52.7712209,42 52.7264611,42 L1.23387313,41.9985946 L1.1581087,41.9917217 C1.10527493,41.9840641 1.05373441,41.9711438 1.01163007,41.9558026 C0.852764013,41.900696 0.723055324,41.796935 0.624310604,41.6410459 L0.603770563,41.6042221 L0.572189061,41.5326419 L0.548894644,41.4569523 L0.535662066,41.3881216 L0.529975006,41.3256667 L0.529975006,41.2703925 L0.535945215,41.2042794 L0.551838914,41.1257584 C0.573032042,41.0448571 0.607353292,40.9716623 0.643315025,40.9255659 L26.3633866,0.83823103 C26.65272,0.387256323 27.34728,0.387256323 27.6366134,0.83823103 Z M26.2561765,30.399487 L4.44412018,40.599009 L26.2561765,40.599009 L26.2561765,30.399487 Z M27.7432941,30.3989949 L27.7432941,40.599009 L49.5559243,40.599009 L27.7432941,30.3989949 Z M27.7432941,3.71401286 L27.7432941,28.8346328 L50.767765,39.6014037 L27.7432941,3.71401286 Z M26.2561765,3.71353136 L4.17844188,38.1256953 L26.2561765,20.919837 L26.2561765,3.71353136 Z M26.2561765,22.7388465 L6.70032596,37.9795421 L26.2561765,28.8346349 L26.2561765,22.7388465 Z" id="path-1"></path>
    </defs>
    <g id="Page-1" stroke="none" stroke-width="1" fill="none" fill-rule="evenodd">
        <g id="main" transform="translate(-130.000000, -44.000000)">
            <g id="logo/symbol_export" transform="translate(130.000000, 44.000000)">
                <g id="logo/symbol">
                    <mask id="mask-2" fill="white">
                        <use xlink:href="#path-1"></use>
                    </mask>
                    <use id="Mask" fill="#000000" fill-rule="nonzero" xlink:href="#path-1"></use>
                    <g id="color/black" mask="url(#mask-2)" fill="#000000" fill-rule="evenodd">
                        <rect id="Change-Fill-Color" x="0" y="0" width="54" height="43"></rect>
                    </g>
                </g>
            </g>
        </g>
    </g>
</svg>