<?xml version="1.0" encoding="UTF-8"?>
<svg width="32px" height="32px" viewBox="0 0 32 32" version="1.1" xmlns="http://www.w3.org/2000/svg" xmlns:xlink="http://www.w3.org/1999/xlink">
    <!-- Generator: Sketch 59.1 (86144) - https://sketch.com -->
    <title>icons-local / laptop</title>
    <desc>Created with Sketch.</desc>
    <defs>
        <path d="M25.3333333,24 L29.3333333,24 C30.069713,24 30.6666667,24.5969537 30.6666667,25.3333333 C30.6666667,26.069713 30.069713,26.6666667 29.3333333,26.6666667 L2.66666667,26.6666667 C1.930287,26.6666667 1.33333333,26.069713 1.33333333,25.3333333 C1.33333333,24.5969537 1.930287,24 2.66666667,24 L6.66666667,24 C5.19390733,24 4,22.8060927 4,21.3333333 L4,9.33333333 C4,7.860574 5.19390733,6.66666667 6.66666667,6.66666667 L25.3333333,6.66666667 C26.8060927,6.66666667 28,7.860574 28,9.33333333 L28,21.3333333 C28,22.8060927 26.8060927,24 25.3333333,24 Z M6.66666667,9.33333333 L6.66666667,21.3333333 L25.3333333,21.3333333 L25.3333333,9.33333333 L6.66666667,9.33333333 Z" id="path-1"></path>
    </defs>
    <g id="Page-1" stroke="none" stroke-width="1" fill="none" fill-rule="evenodd">
        <g id="main" transform="translate(-20.000000, -264.000000)">
            <g id="Side-Nav">
                <g id="menu" transform="translate(8.000000, 172.000000)">
                    <g id="icons-local-/-laptop_export" transform="translate(12.000000, 92.000000)">
                        <g id="icons-local-/-laptop">
                            <mask id="mask-2" fill="white">
                                <use xlink:href="#path-1"></use>
                            </mask>
                            <g id="Mask" fill-rule="nonzero"></g>
                            <g id="color/white" mask="url(#mask-2)" fill="#FFFFFF" fill-rule="evenodd">
                                <rect id="Change-Fill-Color" x="0" y="0" width="32" height="32"></rect>
                            </g>
                        </g>
                    </g>
                </g>
            </g>
        </g>
    </g>
</svg>