<?xml version="1.0" encoding="UTF-8"?>
<svg width="32px" height="32px" viewBox="0 0 32 32" version="1.1" xmlns="http://www.w3.org/2000/svg" xmlns:xlink="http://www.w3.org/1999/xlink">
    <!-- Generator: Sketch 59.1 (86144) - https://sketch.com -->
    <title>icons-local / location</title>
    <desc>Created with Sketch.</desc>
    <defs>
        <path d="M24,13.3333333 C24,8.91505533 20.418278,5.33333333 16,5.33333333 C11.581722,5.33333333 8,8.91505533 8,13.3333333 C8,16.1458004 10.6473248,20.4590316 16,26.081748 C21.3526752,20.4590316 24,16.1458004 24,13.3333333 Z M5.33333333,13.3333333 C5.33333333,7.442296 10.1089627,2.66666667 16,2.66666667 C21.8910373,2.66666667 26.6666667,7.442296 26.6666667,13.3333333 C26.6666667,17.2317741 23.4054665,22.3565171 16.9517052,28.9338281 C16.4290375,29.4665017 15.5709625,29.4665017 15.0482948,28.9338281 C8.59453345,22.3565171 5.33333333,17.2317741 5.33333333,13.3333333 Z M16,16 C17.4727593,16 18.6666667,14.8060927 18.6666667,13.3333333 C18.6666667,11.860574 17.4727593,10.6666667 16,10.6666667 C14.5272407,10.6666667 13.3333333,11.860574 13.3333333,13.3333333 C13.3333333,14.8060927 14.5272407,16 16,16 Z M16,18.6666667 C13.0544813,18.6666667 10.6666667,16.278852 10.6666667,13.3333333 C10.6666667,10.3878147 13.0544813,8 16,8 C18.9455187,8 21.3333333,10.3878147 21.3333333,13.3333333 C21.3333333,16.278852 18.9455187,18.6666667 16,18.6666667 Z" id="path-1"></path>
    </defs>
    <g id="Page-1" stroke="none" stroke-width="1" fill="none" fill-rule="evenodd">
        <g id="main" transform="translate(-20.000000, -504.000000)">
            <g id="Side-Nav">
                <g id="menu" transform="translate(8.000000, 172.000000)">
                    <g id="icons-local-/-location_export" transform="translate(12.000000, 332.000000)">
                        <g id="icons-local-/-location">
                            <mask id="mask-2" fill="white">
                                <use xlink:href="#path-1"></use>
                            </mask>
                            <g id="Mask" fill-rule="nonzero"></g>
                            <g id="color/white" mask="url(#mask-2)" fill="#FFFFFF" fill-rule="evenodd">
                                <rect id="Change-Fill-Color" x="0" y="0" width="32" height="32"></rect>
                            </g>
                        </g>
                    </g>
                </g>
            </g>
        </g>
    </g>
</svg>